<?xml version="1.0" encoding="UTF-8"?>
<svg id="Calque_1" data-name="Calque 1" xmlns="http://www.w3.org/2000/svg" viewBox="0 0 640 198">
  <defs>
    <style>
      .cls-1 {
        fill: #0cf;
      }

      .cls-2 {
        fill: #ff5000;
      }
    </style>
  </defs>
  <polygon class="cls-1" points="329.82 28.31 298.51 118.04 273.18 28.31 329.82 28.31"/>
  <polygon class="cls-1" points="414.44 28.31 389.34 118.04 357.57 28.31 414.44 28.31"/>
  <polygon class="cls-1" points="375.75 168.87 311.75 168.87 343.45 78 375.75 168.87"/>
  <path class="cls-2" d="m30.76,28.31h32.02l75.02,92.5V28.31h33.37v140.56h-32.11l-74.93-92.21v92.21H30.76V28.31Z"/>
  <polygon class="cls-2" points="272.86 142.59 219.13 142.59 219.13 105.62 262.42 105.62 255.16 79.91 219.13 79.91 219.13 54.5 247.99 54.5 241.72 32.33 240.59 28.31 185.99 28.31 185.99 168.87 280.29 168.87 272.86 142.59"/>
  <polygon class="cls-2" points="561.69 166.92 561.04 168.88 529.4 168.88 489.77 28.3 522.56 28.3 547.83 118 561.69 166.92"/>
  <polygon class="cls-2" points="574.62 28.3 546.81 71.5 557.59 109.73 610 28.3 574.62 28.3"/>
  <polygon class="cls-1" points="496.8 168.88 440.25 168.88 450.77 131.58 486.28 131.58 496.8 168.88"/>
  <polygon class="cls-1" points="479.5 107.52 457.55 107.52 468.52 68.6 479.5 107.52"/>
  <path class="cls-2" d="m447.98,25.8c-2.23-.63-4.54.67-5.17,2.9l-38.67,137.57c-.63,2.23.67,4.54,2.9,5.17.38.11.76.16,1.14.16,1.83,0,3.51-1.21,4.03-3.06l38.67-137.57c.63-2.23-.67-4.54-2.9-5.17Z"/>
</svg>