<svg width="225" height="213" viewBox="0 0 225 213" fill="none" xmlns="http://www.w3.org/2000/svg">
<path d="M99.0689 41.0028C67.1104 41.0028 44.4507 67.9505 42.7391 96.163C40.2866 136.54 71.7087 170.196 112.136 170.374C122.802 170.426 132.982 168.202 142.217 164.165C170.829 151.63 188.034 122.012 185.556 90.8732C182.274 49.6404 161.287 26.756 136.29 15.6013C79.2322 -9.86419 13.629 28.7876 8.0854 91.0265C7.79162 94.2592 7.65111 97.543 7.66388 100.852C7.86826 157.329 53.5452 203.992 109.99 205.308C169.079 206.675 216.365 159.258 217.311 100.482C217.873 65.5483 199.492 25.9382 187.83 17.0196C187.485 16.8279 187.051 17.1218 186.834 17.4412L114.397 119.035L88.8248 85.7878" stroke="white" stroke-width="12" stroke-linecap="round" stroke-linejoin="round"/>
</svg>
