<svg id="Calque_1" data-name="Calque 1" xmlns="http://www.w3.org/2000/svg" viewBox="0 0 1100 1100"><defs><style>.cls-1{fill:#fff;opacity:0.35;}</style></defs><path class="cls-1" d="M964.68,448.76c-30.6-78.69-69.52-142.8-101.59-167.32a6.23,6.23,0,0,0-.88-.56c-4.72-2.59-10.75-.81-14.36,4.24L763,404.18C713.56,338.29,651.91,298,596.8,273.4a474.78,474.78,0,0,0-114.22-34.82V253A466.05,466.05,0,0,1,591,286.41c54.23,24.18,115,64.18,163.16,130L482.58,797.27v20.82a7.09,7.09,0,0,0,4.7-2.9L762.86,428.82c39.37,58.41,68.92,135.79,77.07,238.26,12.58,158.22-75.2,306.66-218.44,369.37a370.25,370.25,0,0,1-138.91,31.17v14.22a386.46,386.46,0,0,0,144.63-32.33C776,984.35,867.2,830.21,854.12,666c-8.59-108-40.3-188.89-82.39-249.6l86.16-120.82c29.1,24.76,65.37,86,93.52,158.39,34.63,89,53,182,51.7,261.76C1000.73,863,941.75,999.55,837,1100.23c-96.3,92.57-221.34,144.27-354.43,147v14.24c136.77-2.68,265.35-55.78,364.3-150.91a551.6,551.6,0,0,0,123-176.33,561.52,561.52,0,0,0,47.42-218.25C1018.68,634.35,1000,539.45,964.68,448.76Z"/></svg>