<svg width="243" height="119" viewBox="0 0 243 119" fill="none" xmlns="http://www.w3.org/2000/svg">
<path d="M2 47.6227C1.17157 47.6227 0.5 48.2943 0.5 49.1227C0.5 49.9512 1.17157 50.6227 2 50.6227V47.6227ZM242.17 10.9387C242.688 10.2926 242.585 9.34849 241.939 8.83005L231.409 0.381494C230.763 -0.136951 229.819 -0.0334282 229.3 0.612719C228.782 1.25887 228.886 2.20295 229.532 2.7214L238.891 10.2312L231.381 19.5908C230.863 20.237 230.967 21.1811 231.613 21.6995C232.259 22.218 233.203 22.1145 233.721 21.4683L242.17 10.9387ZM2 50.6227C52.372 50.6227 116.12 50.628 155.99 57.4976C165.949 59.2135 174.338 61.3454 180.624 63.9765C186.977 66.6349 190.868 69.6735 192.323 73C193.704 76.1576 193.081 80.0871 189.041 85.1487C184.991 90.2242 177.705 96.1498 166.46 103.016L168.023 105.576C179.37 98.6486 187.009 92.5052 191.386 87.0201C195.775 81.5213 197.084 76.3989 195.071 71.7978C193.133 67.3656 188.305 63.9386 181.783 61.209C175.195 58.4521 166.554 56.2736 156.5 54.5412C116.315 47.6175 52.2596 47.6227 2 47.6227V50.6227ZM166.46 103.016C155.203 109.889 146.975 113.604 141.309 114.933C138.474 115.598 136.412 115.633 134.979 115.272C133.614 114.928 132.812 114.229 132.35 113.255C131.855 112.207 131.679 110.677 131.972 108.598C132.262 106.538 132.996 104.072 134.162 101.265C136.492 95.6527 140.471 88.8627 145.723 81.5329C156.222 66.8805 171.671 50.2598 188.748 36.8461C205.858 23.4061 224.424 13.3266 241.163 11.4911L240.836 8.50894C223.27 10.4352 204.167 20.9202 186.895 34.4869C169.59 48.0798 153.945 64.9078 143.285 79.7855C137.957 87.2208 133.841 94.2162 131.391 100.115C130.167 103.063 129.339 105.784 129.001 108.179C128.666 110.557 128.794 112.752 129.639 114.538C130.518 116.396 132.093 117.639 134.246 118.181C136.331 118.706 138.927 118.573 141.994 117.854C148.133 116.414 156.689 112.496 168.023 105.576L166.46 103.016Z" fill="#00CCFF"/>
</svg>
